<svg width="16" height="16" viewBox="0 0 16 16" fill="none" xmlns="http://www.w3.org/2000/svg">
<path d="M13.5 7V4" stroke="black" stroke-linecap="round" stroke-linejoin="round"/>
<path d="M15 5.5H12" stroke="black" stroke-linecap="round" stroke-linejoin="round"/>
<path d="M10.5 1.5V3.5" stroke="black" stroke-linecap="round" stroke-linejoin="round"/>
<path d="M11.5 2.5H9.5" stroke="black" stroke-linecap="round" stroke-linejoin="round"/>
<path d="M13.5433 9.53755C12.5617 9.81283 11.5244 9.82185 10.5381 9.56369C9.55181 9.30553 8.65199 8.78949 7.93107 8.06857C7.21015 7.34765 6.69411 6.44783 6.43595 5.46152C6.17779 4.47522 6.18681 3.43797 6.46209 2.4563C5.49425 2.72568 4.61389 3.24394 3.90868 3.95944C3.20347 4.67495 2.69803 5.56274 2.44271 6.53438C2.18738 7.50602 2.19108 8.52759 2.45344 9.49736C2.7158 10.4671 3.22767 11.3512 3.93804 12.0616C4.64842 12.772 5.53252 13.2838 6.50228 13.5462C7.47204 13.8086 8.49362 13.8123 9.46526 13.5569C10.4369 13.3016 11.3247 12.7962 12.0402 12.091C12.7557 11.3858 13.274 10.5054 13.5433 9.53755Z" stroke="black" stroke-linecap="round" stroke-linejoin="round"/>
</svg>
